<svg width="313" height="313" viewBox="0 0 313 313" fill="none" xmlns="http://www.w3.org/2000/svg">
<path fill-rule="evenodd" clip-rule="evenodd" d="M156.5 313C242.933 313 313 242.933 313 156.5C313 70.0674 242.933 0 156.5 0C70.0674 0 0 70.0674 0 156.5C0 242.933 70.0674 313 156.5 313ZM308 156.5C308 240.171 240.171 308 156.5 308C72.8289 308 5 240.171 5 156.5C5 142.347 6.94058 128.648 10.5702 115.654L33.3713 120.107L49.3419 141.454L81.2831 184.148L122.524 142.566L124.908 145.621V187.654L112.489 230.137L103.694 221.654L77.2475 227.591L106.248 251.486L104.714 256.736H184.452L184.126 259.65L190.164 256.736H204.089L202.159 250.946L219.967 242.35L223.56 215.484L195.745 231.702L181.061 187.654L182.124 145.621L185.704 141.402L225.071 188.326L260.408 148.309L278.077 128.3L301.92 122.259L279.477 121.998L261.382 136.063L225.192 164.192L188.468 138.146L204.089 119.739H164.636C161.348 117.188 157.108 110.894 164.872 104.655C165.145 104.436 165.399 104.221 165.636 104.012C174.117 99.854 179.956 91.1357 179.956 81.0536C179.956 66.9407 168.515 55.4998 154.402 55.4998C140.289 55.4998 128.848 66.9407 128.848 81.0536C128.848 92.1964 135.98 101.673 145.928 105.169C147.58 109.125 149.567 116.749 145.936 119.739H104.714L119.48 138.664L83.139 160.139L50.2698 129.45L33.8353 114.105L10.6081 115.518C28.4821 51.7573 87.0306 5 156.5 5C240.171 5 308 72.8289 308 156.5Z" fill="url(#paint0_linear)"/>
<defs>
<linearGradient id="paint0_linear" x1="155.985" y1="55.4998" x2="155.985" y2="259.65" gradientUnits="userSpaceOnUse">
<stop offset="0.255208" stop-color="#FF815E"/>
<stop offset="0.90625" stop-color="#64B6AC"/>
</linearGradient>
</defs>
</svg>
