<svg width="64" height="64" viewBox="0 0 64 64" fill="none" xmlns="http://www.w3.org/2000/svg">
<circle cx="32" cy="32" r="31" stroke="url(#paint0_linear)" stroke-width="2"/>
<path fill-rule="evenodd" clip-rule="evenodd" d="M33.8092 21.6063C35.4885 20.783 36.6447 19.0566 36.6447 17.0602C36.6447 14.2655 34.3792 12 31.5846 12C28.7899 12 26.5244 14.2655 26.5244 17.0602C26.5244 19.2666 27.9367 21.1433 29.9065 21.8354C30.2337 22.6189 30.6272 24.1285 29.9082 24.7207H21.7453L24.6693 28.4682L17.4731 32.7206L10.9644 26.6435L7.71002 23.605L3 23.8915L7.61815 24.7936L10.7806 29.0207L17.1056 37.4749L25.2722 29.2409L25.7441 29.8457V38.1691L23.285 46.5817L21.5434 44.9019L16.3065 46.0775L22.0492 50.8091L21.7453 51.8487H37.535L37.4706 52.4258L38.6662 51.8487H41.4237L41.0415 50.7021L44.5679 49L45.2792 43.6801L39.7713 46.8916L36.8637 38.1691L37.0741 29.8457L37.7831 29.0104L45.5784 38.3023L52.5759 30.378L56.0747 26.4159L60.7961 25.2196L56.352 25.1679L52.7688 27.953L45.6024 33.5233L38.3304 28.3655L41.4237 24.7207H33.6112C32.9601 24.2156 32.1205 22.9691 33.6578 21.7338C33.7119 21.6903 33.7623 21.6478 33.8092 21.6063Z" fill="url(#paint1_linear)"/>
<defs>
<linearGradient id="paint0_linear" x1="32" y1="2" x2="32" y2="62" gradientUnits="userSpaceOnUse">
<stop stop-color="#64B6AC"/>
<stop offset="1" stop-color="#FF815E"/>
</linearGradient>
<linearGradient id="paint1_linear" x1="31.898" y1="12" x2="31.898" y2="52.4258" gradientUnits="userSpaceOnUse">
<stop offset="0.255208" stop-color="#FF815E"/>
<stop offset="0.90625" stop-color="#64B6AC"/>
</linearGradient>
</defs>
</svg>
