<svg width="286" height="266" viewBox="0 0 286 266" fill="none" xmlns="http://www.w3.org/2000/svg">
<mask id="mask0" mask-type="alpha" maskUnits="userSpaceOnUse" x="5" y="0" width="281" height="266">
<ellipse rx="71.4162" ry="17.9657" transform="matrix(0.998753 -0.0499197 0.0554469 0.998462 127.131 170.478)" fill="#060606"/>
<ellipse rx="34.4301" ry="11.233" transform="matrix(0.993178 0.116608 -0.129351 0.991599 134.136 142.412)" fill="#060606"/>
<ellipse rx="46.8763" ry="11.2241" transform="matrix(0.999679 -0.0253309 0.0281418 0.999604 134.131 120.526)" fill="#060606"/>
<ellipse rx="22.8896" ry="7.44711" transform="matrix(0.987387 -0.158322 0.175389 0.984499 134.136 101.306)" fill="#060606"/>
<ellipse cx="145.81" cy="133" rx="140.19" ry="133" fill="#060606"/>
<mask id="mask1" maskUnits="userSpaceOnUse" x="0" y="0" width="281" height="266">
<ellipse cx="140.19" cy="133" rx="140.19" ry="133" fill="#060606"/>
</mask>
<g mask="url(#mask1)">
<path d="M254.246 53.8734C226.375 65.4615 175.716 119.509 196.048 242.992H275.057L254.246 53.8734Z" fill="#060606"/>
<path d="M258.682 54.1541C230.811 65.7422 180.152 119.789 200.485 243.272H279.493L258.682 54.1541Z" fill="#060606"/>
<path d="M263.71 54.1541C235.839 65.7422 185.18 119.789 205.513 243.272H284.521L263.71 54.1541Z" fill="#060606"/>
<path d="M269.034 54.1541C241.163 65.7422 190.504 119.789 210.836 243.272H289.845L269.034 54.1541Z" fill="#060606"/>
<path d="M273.47 54.9958C245.599 66.584 194.94 120.631 215.273 244.114H294.281L273.47 54.9958Z" fill="#060606"/>
<path d="M273.47 54.9958C245.599 66.584 194.94 120.631 215.273 244.114H294.281L273.47 54.9958Z" fill="#060606"/>
<path d="M277.907 54.9958C250.036 66.584 199.377 120.631 219.709 244.114H298.718L277.907 54.9958Z" fill="#060606"/>
<path d="M282.935 54.9958C255.064 66.584 204.405 120.631 224.737 244.114H303.746L282.935 54.9958Z" fill="#060606"/>
<path d="M287.371 54.9958C259.5 66.584 208.841 120.631 229.173 244.114H308.182L287.371 54.9958Z" fill="#060606"/>
</g>
</mask>
<g mask="url(#mask0)">
<path d="M21.1852 218.698C34.4259 206.829 72.471 187.98 118.725 207.544C164.98 227.107 231.272 215.695 258.636 207.544L265.698 258.598L79.0031 303.647L15.0062 218.698H21.1852Z" fill="url(#paint0_linear)"/>
<path d="M197.46 166.963C197.566 168.871 196.121 171.051 192.683 173.343C189.307 175.592 184.296 177.752 177.974 179.685C165.346 183.546 147.711 186.436 128.072 187.417C108.433 188.399 90.5755 187.283 77.5895 184.702C71.0887 183.41 65.8657 181.762 62.2599 179.861C58.5868 177.925 56.9088 175.902 56.8028 173.993C56.6968 172.084 58.1415 169.905 61.5797 167.613C64.955 165.363 69.9666 163.203 76.2883 161.271C88.9166 157.41 106.551 154.52 126.19 153.538C145.829 152.557 163.687 153.672 176.673 156.253C183.174 157.545 188.397 159.193 192.002 161.094C195.675 163.031 197.354 165.054 197.46 166.963Z" fill="#441818" stroke="black" stroke-width="2"/>
<path d="M167.338 146.311C167.196 147.405 166.357 148.534 164.575 149.591C162.807 150.639 160.27 151.516 157.104 152.149C150.782 153.412 142.18 153.659 132.813 152.559C123.445 151.46 115.167 149.23 109.36 146.543C106.452 145.197 104.217 143.76 102.772 142.335C101.315 140.897 100.792 139.609 100.934 138.514C101.077 137.42 101.916 136.291 103.698 135.234C105.466 134.185 108.003 133.309 111.169 132.676C117.491 131.413 126.093 131.166 135.46 132.265C144.828 133.365 153.106 135.594 158.912 138.282C161.821 139.628 164.056 141.065 165.501 142.49C166.958 143.928 167.481 145.216 167.338 146.311Z" fill="#060606" stroke="black" stroke-width="2"/>
<path d="M179.992 119.364C180.019 120.32 179.212 121.561 176.915 122.942C174.697 124.275 171.401 125.542 167.23 126.654C158.902 128.874 147.304 130.42 134.418 130.746C121.533 131.073 109.864 130.116 101.424 128.321C97.1954 127.422 93.8334 126.324 91.5429 125.105C89.1715 123.843 88.296 122.645 88.2691 121.688C88.2422 120.732 89.0489 119.491 91.346 118.111C93.5646 116.777 96.8601 115.511 101.032 114.399C109.359 112.179 120.957 110.633 133.843 110.306C146.729 109.98 158.397 110.936 166.838 112.731C171.066 113.63 174.428 114.728 176.718 115.947C179.09 117.209 179.965 118.408 179.992 119.364Z" fill="#441818" stroke="black" stroke-width="2"/>
<path d="M155.75 97.8404C155.852 98.4113 155.621 99.178 154.729 100.137C153.848 101.083 152.443 102.076 150.569 103.041C146.831 104.964 141.434 106.664 135.267 107.653C129.101 108.642 123.414 108.718 119.217 108.068C117.114 107.741 115.442 107.241 114.283 106.622C113.108 105.995 112.625 105.343 112.523 104.772C112.421 104.201 112.651 103.434 113.544 102.475C114.425 101.529 115.83 100.536 117.704 99.5715C121.442 97.6485 126.839 95.9476 133.006 94.9588C139.172 93.9701 144.859 93.8936 149.055 94.5444C151.159 94.8707 152.83 95.3711 153.99 95.9899C155.165 96.6172 155.648 97.2695 155.75 97.8404Z" fill="#2C2222" stroke="black" stroke-width="2"/>
<line x1="20.999" y1="186.424" x2="249.622" y2="186.424" stroke="black" stroke-width="11" stroke-linejoin="bevel"/>
<path d="M285 133C285 205.853 222.733 265 145.81 265C68.8868 265 6.61945 205.853 6.61945 133C6.61945 60.1474 68.8868 1 145.81 1C222.733 1 285 60.1474 285 133Z" stroke="black" stroke-width="2"/>
<mask id="mask2" mask-type="alpha" maskUnits="userSpaceOnUse" x="0" y="0" width="281" height="266">
<ellipse cx="140.19" cy="133" rx="140.19" ry="133" fill="#C4C4C4"/>
</mask>
<g mask="url(#mask2)">
<path d="M254.246 53.8734C226.375 65.4615 175.716 119.509 196.048 242.992H275.057L254.246 53.8734Z" fill="url(#paint1_linear)" stroke="black"/>
<path d="M258.682 54.1541C230.811 65.7422 180.152 119.789 200.485 243.272H279.493L258.682 54.1541Z" fill="url(#paint2_linear)" stroke="black"/>
<path d="M263.71 54.1541C235.839 65.7422 185.18 119.789 205.513 243.272H284.521L263.71 54.1541Z" fill="url(#paint3_linear)" stroke="black"/>
<path d="M269.034 54.1541C241.163 65.7422 190.504 119.789 210.836 243.272H289.845L269.034 54.1541Z" fill="url(#paint4_linear)" stroke="black"/>
<path d="M273.47 54.9958C245.599 66.584 194.94 120.631 215.273 244.114H294.281L273.47 54.9958Z" fill="url(#paint5_linear)" stroke="black"/>
<path d="M273.47 54.9958C245.599 66.584 194.94 120.631 215.273 244.114H294.281L273.47 54.9958Z" fill="url(#paint6_linear)" stroke="black"/>
<path d="M277.907 54.9958C250.036 66.584 199.377 120.631 219.709 244.114H298.718L277.907 54.9958Z" fill="url(#paint7_linear)" stroke="black"/>
<path d="M282.935 54.9958C255.064 66.584 204.405 120.631 224.737 244.114H303.746L282.935 54.9958Z" fill="url(#paint8_linear)" stroke="black"/>
<path d="M287.371 54.9958C266.324 63.7465 232.283 96.709 225.63 165.5C223.473 187.806 224.195 213.878 229.173 244.114H308.182L287.371 54.9958Z" fill="url(#paint9_linear)" stroke="black"/>
</g>
</g>
<defs>
<linearGradient id="paint0_linear" x1="140.352" y1="199.071" x2="140.352" y2="303.647" gradientUnits="userSpaceOnUse">
<stop stop-color="#64B6AC"/>
<stop offset="1" stop-color="#14433D" stop-opacity="0.35"/>
</linearGradient>
<linearGradient id="paint1_linear" x1="233.207" y1="53.8734" x2="233.207" y2="242.992" gradientUnits="userSpaceOnUse">
<stop stop-color="#64B6AC"/>
<stop offset="1" stop-color="#64B6AC" stop-opacity="0"/>
</linearGradient>
<linearGradient id="paint2_linear" x1="237.643" y1="54.1541" x2="237.643" y2="243.272" gradientUnits="userSpaceOnUse">
<stop stop-color="#64B6AC"/>
<stop offset="1" stop-color="#64B6AC" stop-opacity="0"/>
</linearGradient>
<linearGradient id="paint3_linear" x1="242.671" y1="54.1541" x2="242.671" y2="243.272" gradientUnits="userSpaceOnUse">
<stop stop-color="#64B6AC"/>
<stop offset="1" stop-color="#64B6AC" stop-opacity="0"/>
</linearGradient>
<linearGradient id="paint4_linear" x1="247.995" y1="54.1541" x2="247.995" y2="243.272" gradientUnits="userSpaceOnUse">
<stop stop-color="#64B6AC"/>
<stop offset="1" stop-color="#64B6AC" stop-opacity="0"/>
</linearGradient>
<linearGradient id="paint5_linear" x1="252.431" y1="54.9958" x2="252.431" y2="244.114" gradientUnits="userSpaceOnUse">
<stop stop-color="#64B6AC"/>
<stop offset="1" stop-color="#64B6AC" stop-opacity="0"/>
</linearGradient>
<linearGradient id="paint6_linear" x1="252.431" y1="54.9958" x2="252.431" y2="244.114" gradientUnits="userSpaceOnUse">
<stop stop-color="#64B6AC"/>
<stop offset="1" stop-color="#64B6AC" stop-opacity="0"/>
</linearGradient>
<linearGradient id="paint7_linear" x1="256.868" y1="54.9958" x2="256.868" y2="244.114" gradientUnits="userSpaceOnUse">
<stop stop-color="#64B6AC"/>
<stop offset="1" stop-color="#64B6AC" stop-opacity="0"/>
</linearGradient>
<linearGradient id="paint8_linear" x1="261.896" y1="54.9958" x2="261.896" y2="244.114" gradientUnits="userSpaceOnUse">
<stop stop-color="#64B6AC"/>
<stop offset="1" stop-color="#64B6AC" stop-opacity="0"/>
</linearGradient>
<linearGradient id="paint9_linear" x1="266.332" y1="54.9958" x2="266.332" y2="244.114" gradientUnits="userSpaceOnUse">
<stop stop-color="#64B6AC"/>
<stop offset="1" stop-color="#64B6AC" stop-opacity="0"/>
</linearGradient>
</defs>
</svg>
